<svg
                width="20"
                height="20"
                viewBox="0 0 20 20"
                fill="none"
                xmlns="http://www.w3.org/2000/svg"
              >
                <path
                  d="M3.33331 5.83333C3.33331 5.3731 3.70644 5 4.16665 5H15.8333C16.2935 5 16.6666 5.3731 16.6666 5.83333C16.6666 6.29357 16.2935 6.66667 15.8333 6.66667H4.16665C3.70644 6.66667 3.33331 6.29357 3.33331 5.83333ZM6.66665 10C6.66665 9.53976 7.03975 9.16667 7.49998 9.16667H12.5C12.9602 9.16667 13.3333 9.53976 13.3333 10C13.3333 10.4602 12.9602 10.8333 12.5 10.8333H7.49998C7.03975 10.8333 6.66665 10.4602 6.66665 10ZM9.16665 14.1667C9.16665 13.7064 9.53975 13.3333 9.99998 13.3333C10.4602 13.3333 10.8333 13.7064 10.8333 14.1667C10.8333 14.6269 10.4602 15 9.99998 15C9.53975 15 9.16665 14.6269 9.16665 14.1667Z"
                  fill="#fff"
                />
              </svg>