 <svg
                width="20"
                height="20"
                viewBox="0 0 20 20"
                fill="none"
                xmlns="http://www.w3.org/2000/svg"
              >
                <path
                  d="M10 13.3333C11.841 13.3333 13.3333 11.841 13.3333 10C13.3333 8.15905 11.841 6.66666 10 6.66666C8.15905 6.66666 6.66666 8.15905 6.66666 10C6.66666 11.841 8.15905 13.3333 10 13.3333Z"
                  stroke="#fff"
                  strokeWidth="1.5"
                  strokeLinecap="round"
                  strokeLinejoin="round"
                />
                <path
                  d="M17.5 10.0001C17.5 10.6751 16.9417 11.2334 16.2667 11.2334C15.9917 11.2334 15.75 11.4751 15.75 11.7501V12.0834C15.75 12.5167 15.9417 12.9251 16.2667 13.1751C16.9417 13.6751 16.9417 14.6584 16.2667 15.1584C15.5917 15.6584 14.6083 15.6584 13.9333 15.1584C13.6583 14.9584 13.25 15.0167 13.05 15.2917L12.8333 15.5834C12.6333 15.8584 12.675 16.2667 12.9333 16.5417C13.4333 17.2167 12.9917 18.2001 12.1333 18.2001C11.4583 18.2001 10.9 17.6417 10.9 16.9667C10.9 16.6917 10.6583 16.4501 10.3833 16.4501H10.0167C9.74166 16.4501 9.5 16.6917 9.5 16.9667C9.5 17.6417 8.94166 18.2001 8.26666 18.2001C7.40833 18.2001 6.96666 17.2167 7.46666 16.5417C7.725 16.2667 7.76666 15.8584 7.56666 15.5834L7.35 15.2917C7.15 15.0167 6.74166 14.9584 6.46666 15.1584C5.79166 15.6584 4.80833 15.6584 4.13333 15.1584C3.45833 14.6584 3.45833 13.6751 4.13333 13.1751C4.45833 12.9251 4.65 12.5167 4.65 12.0834V11.7501C4.65 11.4751 4.40833 11.2334 4.13333 11.2334C3.45833 11.2334 2.9 10.6751 2.9 10.0001C2.9 9.32505 3.45833 8.76672 4.13333 8.76672C4.40833 8.76672 4.65 8.52505 4.65 8.25005V7.91672C4.65 7.48338 4.45833 7.07505 4.13333 6.82505C3.45833 6.32505 3.45833 5.34172 4.13333 4.84172C4.80833 4.34172 5.79166 4.34172 6.46666 4.84172C6.74166 5.04172 7.15 4.98338 7.35 4.70838L7.56666 4.41672C7.76666 4.14172 7.725 3.73338 7.46666 3.45838C6.96666 2.78338 7.40833 1.80005 8.26666 1.80005C8.94166 1.80005 9.5 2.35838 9.5 3.03338C9.5 3.30838 9.74166 3.55005 10.0167 3.55005H10.3833C10.6583 3.55005 10.9 3.30838 10.9 3.03338C10.9 2.35838 11.4583 1.80005 12.1333 1.80005C12.9917 1.80005 13.4333 2.78338 12.9333 3.45838C12.675 3.73338 12.6333 4.14172 12.8333 4.41672L13.05 4.70838C13.25 4.98338 13.6583 5.04172 13.9333 4.84172C14.6083 4.34172 15.5917 4.34172 16.2667 4.84172C16.9417 5.34172 16.9417 6.32505 16.2667 6.82505C15.9417 7.07505 15.75 7.48338 15.75 7.91672V8.25005C15.75 8.52505 15.9917 8.76672 16.2667 8.76672C16.9417 8.76672 17.5 9.32505 17.5 10.0001Z"
                  stroke="#fff"
                  strokeWidth="1.5"
                  strokeLinecap="round"
                  strokeLinejoin="round"
                />
              </svg>